/* XPM */
static const char * SDL_icon_xpm[] = {
"64 64 30 1",
" 	c None",
".	c #000000",
"+	c #FFFFFF",
"@	c #B37347",
"#	c #E39767",
"$	c #FFCB97",
"%	c #7F532F",
"&	c #FFCFB3",
"*	c #533F1F",
"=	c #874307",
"-	c #752900",
";	c #5F0000",
">	c #414183",
",	c #9B5B13",
"'	c #5252FF",
")	c #21224E",
"!	c #FF3F3F",
"~	c #AF0000",
"{	c #FF5F5F",
"]	c #470000",
"^	c #FFB78B",
"/	c #BFBFBF",
"(	c #E4E4E4",
"_	c #979797",
":	c #7F0000",
"<	c #C39B2F",
"[	c #DF0000",
"}	c #EBDB57",
"|	c #FFFF00",
"1	c #000000",
"                        ++++++++++++++++                        ",
"                        ++++++++++++++++                        ",
"                        ++++++++++++++++                        ",
"                        ++++++++++++++++                        ",
"                ++++++++@@@@@@@@@@@@@@@@++++++++                ",
"                ++++++++@@@@@@@@@@@@@@@@++++++++                ",
"                ++++++++@@@@@@@@@@@@@@@@++++++++                ",
"                ++++++++@@@@@@@@@@@@@@@@++++++++                ",
"            ++++@@@@####$$$$$$$$$$$$$$$$####@@@@++++            ",
"            ++++@@@@####$$$$$$$$$$$$$$$$####@@@@++++            ",
"            ++++@@@@####$$$$$$$$$$$$$$$$####@@@@++++            ",
"            ++++@@@@####$$$$$$$$$$$$$$$$####@@@@++++            ",
"        ++++%%%%####$$$$&&&&++++++++&&&&$$$$####%%%%++++        ",
"        ++++%%%%####$$$$&&&&++++++++&&&&$$$$####%%%%++++        ",
"        ++++%%%%####$$$$&&&&++++++++&&&&$$$$####%%%%++++        ",
"        ++++%%%%####$$$$&&&&++++++++&&&&$$$$####%%%%++++        ",
"++++++++****@@@@$$$$$$$$$$$$&&&&&&&&$$$$$$$$$$$$@@@@****++++++++",
"++++++++****@@@@$$$$$$$$$$$$&&&&&&&&$$$$$$$$$$$$@@@@****++++++++",
"++++++++****@@@@$$$$$$$$$$$$&&&&&&&&$$$$$$$$$$$$@@@@****++++++++",
"++++++++****@@@@$$$$$$$$$$$$&&&&&&&&$$$$$$$$$$$$@@@@****++++++++",
"====----;;;;####$$$$>>>>>>>>$$$$$$$$>>>>>>>>$$$$####;;;;----====",
"====----;;;;####$$$$>>>>>>>>$$$$$$$$>>>>>>>>$$$$####;;;;----====",
"====----;;;;####$$$$>>>>>>>>$$$$$$$$>>>>>>>>$$$$####;;;;----====",
"====----;;;;####$$$$>>>>>>>>$$$$$$$$>>>>>>>>$$$$####;;;;----====",
",,,,,,,,====----@@@@''''''''########''''''''@@@@----====,,,,,,,,",
",,,,,,,,====----@@@@''''''''########''''''''@@@@----====,,,,,,,,",
",,,,,,,,====----@@@@''''''''########''''''''@@@@----====,,,,,,,,",
",,,,,,,,====----@@@@''''''''########''''''''@@@@----====,,,,,,,,",
"----====,,,,====----))))))))!!!!!!!!))))))))----====,,,,====----",
"----====,,,,====----))))))))!!!!!!!!))))))))----====,,,,====----",
"----====,,,,====----))))))))!!!!!!!!))))))))----====,,,,====----",
"----====,,,,====----))))))))!!!!!!!!))))))))----====,,,,====----",
",,,,,,,,,,,,,,,,,,,,====~~~~{{{{{{{{~~~~====,,,,,,,,,,,,,,,,,,,,",
",,,,,,,,,,,,,,,,,,,,====~~~~{{{{{{{{~~~~====,,,,,,,,,,,,,,,,,,,,",
",,,,,,,,,,,,,,,,,,,,====~~~~{{{{{{{{~~~~====,,,,,,,,,,,,,,,,,,,,",
",,,,,,,,,,,,,,,,,,,,====~~~~{{{{{{{{~~~~====,,,,,,,,,,,,,,,,,,,,",
"----------------------------{{{{{{{{----------------------------",
"----------------------------{{{{{{{{----------------------------",
"----------------------------{{{{{{{{----------------------------",
"----------------------------{{{{{{{{----------------------------",
"]]]];;;;----^^^^////((((____((((((((____((((////^^^^----;;;;]]]]",
"]]]];;;;----^^^^////((((____((((((((____((((////^^^^----;;;;]]]]",
"]]]];;;;----^^^^////((((____((((((((____((((////^^^^----;;;;]]]]",
"]]]];;;;----^^^^////((((____((((((((____((((////^^^^----;;;;]]]]",
"::::::::<<<<@@@@^^^^++++////++++++++////++++^^^^@@@@<<<<::::::::",
"::::::::<<<<@@@@^^^^++++////++++++++////++++^^^^@@@@<<<<::::::::",
"::::::::<<<<@@@@^^^^++++////++++++++////++++^^^^@@@@<<<<::::::::",
"::::::::<<<<@@@@^^^^++++////++++++++////++++^^^^@@@@<<<<::::::::",
"::::::::<<<<<<<<----####^^^^$$$$$$$$^^^^####----<<<<<<<<::::::::",
"::::::::<<<<<<<<----####^^^^$$$$$$$$^^^^####----<<<<<<<<::::::::",
"::::::::<<<<<<<<----####^^^^$$$$$$$$^^^^####----<<<<<<<<::::::::",
"::::::::<<<<<<<<----####^^^^$$$$$$$$^^^^####----<<<<<<<<::::::::",
"~~~~[[[[}}}}||||||||@@@@----------------@@@@||||||||}}}}[[[[~~~~",
"~~~~[[[[}}}}||||||||@@@@----------------@@@@||||||||}}}}[[[[~~~~",
"~~~~[[[[}}}}||||||||@@@@----------------@@@@||||||||}}}}[[[[~~~~",
"~~~~[[[[}}}}||||||||@@@@----------------@@@@||||||||}}}}[[[[~~~~",
"[[[[[[[[||||||||<<<<~~~~~~~~~~~~~~~~~~~~~~~~<<<<||||||||[[[[[[[[",
"[[[[[[[[||||||||<<<<~~~~~~~~~~~~~~~~~~~~~~~~<<<<||||||||[[[[[[[[",
"[[[[[[[[||||||||<<<<~~~~~~~~~~~~~~~~~~~~~~~~<<<<||||||||[[[[[[[[",
"[[[[[[[[||||||||<<<<~~~~~~~~~~~~~~~~~~~~~~~~<<<<||||||||[[[[[[[[",
"[[[[[[[[||||<<<<~~~~[[[[[[[[[[[[[[[[[[[[[[[[~~~~<<<<||||[[[[[[[[",
"[[[[[[[[||||<<<<~~~~[[[[[[[[[[[[[[[[[[[[[[[[~~~~<<<<||||[[[[[[[[",
"[[[[[[[[||||<<<<~~~~[[[[[[[[[[[[[[[[[[[[[[[[~~~~<<<<||||[[[[[[[[",
"[[[[[[[[||||<<<<~~~~[[[[[[[[[[[[[[[[[[[[[[[[~~~~<<<<||||[[[[[[[["};
